<?xml version="1.0" encoding="utf-8"?>
<!-- Generator: Adobe Illustrator 23.0.3, SVG Export Plug-In . SVG Version: 6.00 Build 0)  -->
<svg version="1.1" id="Layer_1" xmlns="http://www.w3.org/2000/svg" xmlns:xlink="http://www.w3.org/1999/xlink" x="0px" y="0px"
	 viewBox="0 0 519 490" enable-background="new 0 0 519 490" xml:space="preserve">
<path fill="none" stroke="#C0C0C0" stroke-width="16" stroke-linecap="round" stroke-linejoin="round" stroke-miterlimit="10" d="
	M8,8c0,157.33,0,314.67,0,472l503,2"/>
<path fill="#2F3D47" d="M121.5,441.5h-63c-6.6,0-12-5.4-12-12v-178c0-6.6,5.4-12,12-12h63c6.6,0,12,5.4,12,12v178
	C133.5,436.1,128.1,441.5,121.5,441.5z"/>
<path fill="#1EAFDB" d="M236.5,441.5h-63c-6.6,0-12-5.4-12-12v-386c0-6.6,5.4-12,12-12h63c6.6,0,12,5.4,12,12v386
	C248.5,436.1,243.1,441.5,236.5,441.5z"/>
<path fill="#E5494A" d="M351.5,441.5h-63c-6.6,0-12-5.4-12-12v-232c0-6.6,5.4-12,12-12h63c6.6,0,12,5.4,12,12v232
	C363.5,436.1,358.1,441.5,351.5,441.5z"/>
<path fill="#F8D00F" d="M466.5,441.5h-63c-6.6,0-12-5.4-12-12v-320c0-6.6,5.4-12,12-12h63c6.6,0,12,5.4,12,12v320
	C478.5,436.1,473.1,441.5,466.5,441.5z"/>
</svg>
