<?xml version="1.0" encoding="utf-8"?>
<!-- Generator: Adobe Illustrator 23.0.3, SVG Export Plug-In . SVG Version: 6.00 Build 0)  -->
<svg version="1.1" id="Layer_1" xmlns="http://www.w3.org/2000/svg" xmlns:xlink="http://www.w3.org/1999/xlink" x="0px" y="0px"
	 viewBox="0 0 519 490" enable-background="new 0 0 519 490" xml:space="preserve">
<path fill="none" stroke="#C0C0C0" stroke-width="16" stroke-linecap="round" stroke-linejoin="round" stroke-miterlimit="10" d="
	M8,8c0,157.33,0,314.67,0,472l503,2"/>
<path fill="#1EAFDB" d="M439.11,70.31c-17.66,0-31.97,14.31-31.97,31.97c0,7.15,2.37,13.72,6.33,19.04l-122.1,174.43
	c-5.22-3.72-11.6-5.93-18.5-5.93c-10.79,0-20.31,5.36-26.1,13.54l-134.13-59.93c0.23-1.56,0.39-3.14,0.39-4.76
	c0-17.66-14.31-31.97-31.97-31.97s-31.97,14.31-31.97,31.97c0,17.66,14.31,31.97,31.97,31.97c10.71,0,20.17-5.29,25.97-13.37
	l134.23,59.97c-0.21,1.49-0.36,3-0.36,4.55c0,17.66,14.31,31.97,31.97,31.97s31.97-14.31,31.97-31.97c0-5.17-1.26-10.04-3.44-14.36
	l123.56-176.51c4.27,2.11,9.06,3.33,14.14,3.33c17.66,0,31.97-14.31,31.97-31.97C471.08,84.62,456.77,70.31,439.11,70.31z"/>
<path fill="#E5494A" d="M454.03,234.41c-11.1,0-20.88,5.66-26.61,14.26l-135.89-59.73c0.33-1.84,0.53-3.73,0.53-5.67
	c0-17.66-14.31-31.97-31.97-31.97c-17.66,0-31.97,14.31-31.97,31.97c0,7.79,2.79,14.92,7.42,20.46L106.5,376.87
	c-3.29-1.15-6.82-1.8-10.51-1.8c-17.66,0-31.97,14.31-31.97,31.97C64.03,424.69,78.34,439,96,439s31.97-14.31,31.97-31.97
	c0-8.57-3.39-16.34-8.88-22.08L247.5,212.64c3.87,1.66,8.12,2.59,12.6,2.59c10.38,0,19.58-4.97,25.42-12.64l136.77,60.12
	c-0.14,1.21-0.23,2.43-0.23,3.67c0,17.66,14.31,31.97,31.97,31.97c17.66,0,31.97-14.31,31.97-31.97
	C486,248.72,471.69,234.41,454.03,234.41z"/>
</svg>
