<?xml version="1.0" encoding="utf-8"?>
<!-- Generator: Adobe Illustrator 23.0.3, SVG Export Plug-In . SVG Version: 6.00 Build 0)  -->
<svg version="1.1" id="Layer_1" xmlns="http://www.w3.org/2000/svg" xmlns:xlink="http://www.w3.org/1999/xlink" x="0px" y="0px"
	 viewBox="0 0 512 512" enable-background="new 0 0 512 512" xml:space="preserve">
<path fill="#E5494A" d="M512,256c0,94.09-50.77,176.33-126.4,220.8C347.59,499.17,303.29,512,256,512C114.62,512,0,397.38,0,256
	c0-39.7,9.04-77.29,25.17-110.82C66.48,59.29,154.32,0,256,0v256H512z"/>
<path d="M430,247"/>
<path fill="#1EAFDB" d="M512,256H256V0C397.38,0,512,114.62,512,256z"/>
<path fill="#F8D00F" d="M512,256c0,94.09-50.77,176.33-126.4,220.8L256,256H512z"/>
<path fill="#2F3D47" d="M256,0v256L25.17,145.18C66.48,59.29,154.32,0,256,0z"/>
</svg>
